STARTFONT 2.1
COMMENT Exported by Fony v1.4.7
FONT Franklin Gothic Medium Cond
SIZE 42 96 96
FONTBOUNDINGBOX 36 41 0 -8
STARTPROPERTIES 6
COPYRIGHT ""
RESOLUTION_X 96
RESOLUTION_Y 96
FONT_ASCENT 34
FONT_DESCENT 8
DEFAULT_CHAR 0
ENDPROPERTIES
CHARS 256
STARTCHAR 000
ENCODING 0
SWIDTH 2592 0
DWIDTH 36 0
BBX 0 0 0 0
BITMAP
ENDCHAR
STARTCHAR 001
ENCODING 1
SWIDTH 2592 0
DWIDTH 36 0
BBX 9 28 1 -1
BITMAP
FF80
FF80
C180
C180
C180
C180
C180
C180
C180
C180
C180
C180
C180
C180
C180
C180
C180
C180
C180
C180
C180
C180
C180
C180
C180
C180
FF80
FF80
ENDCHAR
STARTCHAR 002
ENCODING 2
SWIDTH 2592 0
DWIDTH 36 0
BBX 0 0 0 0
BITMAP
ENDCHAR
STARTCHAR 003
ENCODING 3
SWIDTH 2592 0
DWIDTH 36 0
BBX 9 28 1 -1
BITMAP
FF80
FF80
C180
C180
C180
C180
C180
C180
C180
C180
C180
C180
C180
C180
C180
C180
C180
C180
C180
C180
C180
C180
C180
C180
C180
C180
FF80
FF80
ENDCHAR
STARTCHAR 004
ENCODING 4
SWIDTH 2592 0
DWIDTH 36 0
BBX 9 28 1 -1
BITMAP
FF80
FF80
C180
C180
C180
C180
C180
C180
C180
C180
C180
C180
C180
C180
C180
C180
C180
C180
C180
C180
C180
C180
C180
C180
C180
C180
FF80
FF80
ENDCHAR
STARTCHAR 005
ENCODING 5
SWIDTH 2592 0
DWIDTH 36 0
BBX 9 28 1 -1
BITMAP
FF80
FF80
C180
C180
C180
C180
C180
C180
C180
C180
C180
C180
C180
C180
C180
C180
C180
C180
C180
C180
C180
C180
C180
C180
C180
C180
FF80
FF80
ENDCHAR
STARTCHAR 006
ENCODING 6
SWIDTH 2592 0
DWIDTH 36 0
BBX 9 28 1 -1
BITMAP
FF80
FF80
C180
C180
C180
C180
C180
C180
C180
C180
C180
C180
C180
C180
C180
C180
C180
C180
C180
C180
C180
C180
C180
C180
C180
C180
FF80
FF80
ENDCHAR
STARTCHAR 007
ENCODING 7
SWIDTH 2592 0
DWIDTH 36 0
BBX 9 28 1 -1
BITMAP
FF80
FF80
C180
C180
C180
C180
C180
C180
C180
C180
C180
C180
C180
C180
C180
C180
C180
C180
C180
C180
C180
C180
C180
C180
C180
C180
FF80
FF80
ENDCHAR
STARTCHAR 008
ENCODING 8
SWIDTH 2592 0
DWIDTH 36 0
BBX 9 28 1 -1
BITMAP
FF80
FF80
C180
C180
C180
C180
C180
C180
C180
C180
C180
C180
C180
C180
C180
C180
C180
C180
C180
C180
C180
C180
C180
C180
C180
C180
FF80
FF80
ENDCHAR
STARTCHAR 009
ENCODING 9
SWIDTH 2592 0
DWIDTH 36 0
BBX 0 0 0 0
BITMAP
ENDCHAR
STARTCHAR 010
ENCODING 10
SWIDTH 2592 0
DWIDTH 36 0
BBX 0 0 0 0
BITMAP
ENDCHAR
STARTCHAR 011
ENCODING 11
SWIDTH 2592 0
DWIDTH 36 0
BBX 9 28 1 -1
BITMAP
FF80
FF80
C180
C180
C180
C180
C180
C180
C180
C180
C180
C180
C180
C180
C180
C180
C180
C180
C180
C180
C180
C180
C180
C180
C180
C180
FF80
FF80
ENDCHAR
STARTCHAR 012
ENCODING 12
SWIDTH 2592 0
DWIDTH 36 0
BBX 27 27 5 0
BITMAP
FFFFFFE0
FFFFFFE0
C0000060
C0000060
C0000060
C0000060
C0000060
C0000060
C0000060
C0000060
C0000060
C0000060
C0000060
C0000060
C0000060
C0000060
C0000060
C0000060
C0000060
C0000060
C0000060
C0000060
C0000060
C0000060
C0000060
FFFFFFE0
FFFFFFE0
ENDCHAR
STARTCHAR 013
ENCODING 13
SWIDTH 2592 0
DWIDTH 36 0
BBX 0 0 0 0
BITMAP
ENDCHAR
STARTCHAR 014
ENCODING 14
SWIDTH 2592 0
DWIDTH 36 0
BBX 9 28 1 -1
BITMAP
FF80
FF80
C180
C180
C180
C180
C180
C180
C180
C180
C180
C180
C180
C180
C180
C180
C180
C180
C180
C180
C180
C180
C180
C180
C180
C180
FF80
FF80
ENDCHAR
STARTCHAR 015
ENCODING 15
SWIDTH 2592 0
DWIDTH 36 0
BBX 9 28 1 -1
BITMAP
FF80
FF80
C180
C180
C180
C180
C180
C180
C180
C180
C180
C180
C180
C180
C180
C180
C180
C180
C180
C180
C180
C180
C180
C180
C180
C180
FF80
FF80
ENDCHAR
STARTCHAR 016
ENCODING 16
SWIDTH 2592 0
DWIDTH 36 0
BBX 9 28 1 -1
BITMAP
FF80
FF80
C180
C180
C180
C180
C180
C180
C180
C180
C180
C180
C180
C180
C180
C180
C180
C180
C180
C180
C180
C180
C180
C180
C180
C180
FF80
FF80
ENDCHAR
STARTCHAR 017
ENCODING 17
SWIDTH 2592 0
DWIDTH 36 0
BBX 9 28 1 -1
BITMAP
FF80
FF80
C180
C180
C180
C180
C180
C180
C180
C180
C180
C180
C180
C180
C180
C180
C180
C180
C180
C180
C180
C180
C180
C180
C180
C180
FF80
FF80
ENDCHAR
STARTCHAR 018
ENCODING 18
SWIDTH 2592 0
DWIDTH 36 0
BBX 9 28 1 -1
BITMAP
FF80
FF80
C180
C180
C180
C180
C180
C180
C180
C180
C180
C180
C180
C180
C180
C180
C180
C180
C180
C180
C180
C180
C180
C180
C180
C180
FF80
FF80
ENDCHAR
STARTCHAR 019
ENCODING 19
SWIDTH 2592 0
DWIDTH 36 0
BBX 9 28 1 -1
BITMAP
FF80
FF80
C180
C180
C180
C180
C180
C180
C180
C180
C180
C180
C180
C180
C180
C180
C180
C180
C180
C180
C180
C180
C180
C180
C180
C180
FF80
FF80
ENDCHAR
STARTCHAR 020
ENCODING 20
SWIDTH 2592 0
DWIDTH 36 0
BBX 9 28 1 -1
BITMAP
FF80
FF80
C180
C180
C180
C180
C180
C180
C180
C180
C180
C180
C180
C180
C180
C180
C180
C180
C180
C180
C180
C180
C180
C180
C180
C180
FF80
FF80
ENDCHAR
STARTCHAR 021
ENCODING 21
SWIDTH 2592 0
DWIDTH 36 0
BBX 9 28 1 -1
BITMAP
FF80
FF80
C180
C180
C180
C180
C180
C180
C180
C180
C180
C180
C180
C180
C180
C180
C180
C180
C180
C180
C180
C180
C180
C180
C180
C180
FF80
FF80
ENDCHAR
STARTCHAR 022
ENCODING 22
SWIDTH 2592 0
DWIDTH 36 0
BBX 9 28 1 -1
BITMAP
FF80
FF80
C180
C180
C180
C180
C180
C180
C180
C180
C180
C180
C180
C180
C180
C180
C180
C180
C180
C180
C180
C180
C180
C180
C180
C180
FF80
FF80
ENDCHAR
STARTCHAR 023
ENCODING 23
SWIDTH 2592 0
DWIDTH 36 0
BBX 9 28 1 -1
BITMAP
FF80
FF80
C180
C180
C180
C180
C180
C180
C180
C180
C180
C180
C180
C180
C180
C180
C180
C180
C180
C180
C180
C180
C180
C180
C180
C180
FF80
FF80
ENDCHAR
STARTCHAR 024
ENCODING 24
SWIDTH 2592 0
DWIDTH 36 0
BBX 9 28 1 -1
BITMAP
FF80
FF80
C180
C180
C180
C180
C180
C180
C180
C180
C180
C180
C180
C180
C180
C180
C180
C180
C180
C180
C180
C180
C180
C180
C180
C180
FF80
FF80
ENDCHAR
STARTCHAR 025
ENCODING 25
SWIDTH 2592 0
DWIDTH 36 0
BBX 9 28 1 -1
BITMAP
FF80
FF80
C180
C180
C180
C180
C180
C180
C180
C180
C180
C180
C180
C180
C180
C180
C180
C180
C180
C180
C180
C180
C180
C180
C180
C180
FF80
FF80
ENDCHAR
STARTCHAR 026
ENCODING 26
SWIDTH 2592 0
DWIDTH 36 0
BBX 9 28 1 -1
BITMAP
FF80
FF80
C180
C180
C180
C180
C180
C180
C180
C180
C180
C180
C180
C180
C180
C180
C180
C180
C180
C180
C180
C180
C180
C180
C180
C180
FF80
FF80
ENDCHAR
STARTCHAR 027
ENCODING 27
SWIDTH 2592 0
DWIDTH 36 0
BBX 9 28 1 -1
BITMAP
FF80
FF80
C180
C180
C180
C180
C180
C180
C180
C180
C180
C180
C180
C180
C180
C180
C180
C180
C180
C180
C180
C180
C180
C180
C180
C180
FF80
FF80
ENDCHAR
STARTCHAR 028
ENCODING 28
SWIDTH 2592 0
DWIDTH 36 0
BBX 0 0 0 0
BITMAP
ENDCHAR
STARTCHAR 029
ENCODING 29
SWIDTH 2592 0
DWIDTH 36 0
BBX 0 0 0 0
BITMAP
ENDCHAR
STARTCHAR 030
ENCODING 30
SWIDTH 2592 0
DWIDTH 36 0
BBX 0 0 0 0
BITMAP
ENDCHAR
STARTCHAR 031
ENCODING 31
SWIDTH 2592 0
DWIDTH 36 0
BBX 0 0 0 0
BITMAP
ENDCHAR
STARTCHAR 032
ENCODING 32
SWIDTH 504 0
DWIDTH 7 0
BBX 0 0 0 0
BITMAP
ENDCHAR
STARTCHAR 033
ENCODING 33
SWIDTH 864 0
DWIDTH 12 0
BBX 4 24 4 0
BITMAP
F0
F0
F0
F0
F0
F0
F0
F0
F0
60
60
60
60
60
60
60
60
60
00
00
F0
F0
F0
F0
ENDCHAR
STARTCHAR 034
ENCODING 34
SWIDTH 1296 0
DWIDTH 18 0
BBX 10 10 5 14
BITMAP
F3C0
F3C0
F3C0
F3C0
F3C0
F3C0
F3C0
F3C0
6180
6180
ENDCHAR
STARTCHAR 035
ENCODING 35
SWIDTH 1296 0
DWIDTH 18 0
BBX 16 24 1 0
BITMAP
039C
039C
039C
0738
0738
0738
0738
7FFF
7FFF
0E70
0E70
0E70
0E70
0E70
FFFE
FFFE
1CE0
1CE0
1CE0
1CE0
1CE0
39C0
39C0
39C0
ENDCHAR
STARTCHAR 036
ENCODING 36
SWIDTH 1296 0
DWIDTH 18 0
BBX 14 28 2 -2
BITMAP
0300
0300
0FC0
1FF0
3FF8
3B78
733C
7310
7300
7300
7B00
3F00
3FE0
1FF0
07F8
03FC
033C
031C
231C
E31C
F31C
7B38
7FF8
3FF0
0FC0
0300
0300
0300
ENDCHAR
STARTCHAR 037
ENCODING 37
SWIDTH 1800 0
DWIDTH 25 0
BBX 22 24 1 0
BITMAP
3E00C0
7F0180
770180
E38300
E38300
E38600
E38600
E38C00
E38C00
771800
7F1800
3E3000
0031F0
0063F8
0063B8
00C71C
00C71C
01871C
01871C
03071C
03071C
0603B8
0603F8
0C01F0
ENDCHAR
STARTCHAR 038
ENCODING 38
SWIDTH 1656 0
DWIDTH 23 0
BBX 20 24 2 0
BITMAP
03E000
07F800
0FF800
1F3C00
1E1C00
1E1C00
1E1C00
0E3C00
0F7800
07F000
07E000
1FC060
3FE070
7CF0F0
78F8E0
F078E0
F03DC0
F01FC0
F00F80
F80F80
7C1FC0
3FFFF0
1FF9F0
0FE0F0
ENDCHAR
STARTCHAR 039
ENCODING 39
SWIDTH 864 0
DWIDTH 12 0
BBX 4 10 4 14
BITMAP
F0
F0
F0
F0
F0
60
60
60
60
60
ENDCHAR
STARTCHAR 040
ENCODING 40
SWIDTH 648 0
DWIDTH 9 0
BBX 7 30 2 -6
BITMAP
0E
1C
1C
3C
38
38
78
78
78
70
F0
F0
F0
F0
F0
F0
F0
F0
F0
F0
70
78
78
78
38
38
3C
1C
1C
0E
ENDCHAR
STARTCHAR 041
ENCODING 41
SWIDTH 648 0
DWIDTH 9 0
BBX 7 30 0 -6
BITMAP
E0
70
70
78
38
38
3C
3C
3C
1C
1E
1E
1E
1E
1E
1E
1E
1E
1E
1E
1C
3C
3C
3C
38
38
78
70
70
E0
ENDCHAR
STARTCHAR 042
ENCODING 42
SWIDTH 1296 0
DWIDTH 18 0
BBX 13 13 3 11
BITMAP
0700
0700
4710
6730
FFF8
3FE0
0F80
3FE0
FFF8
6730
4710
0700
0700
ENDCHAR
STARTCHAR 043
ENCODING 43
SWIDTH 1296 0
DWIDTH 18 0
BBX 15 15 1 4
BITMAP
0380
0380
0380
0380
0380
0380
FFFE
FFFE
FFFE
0380
0380
0380
0380
0380
0380
ENDCHAR
STARTCHAR 044
ENCODING 44
SWIDTH 648 0
DWIDTH 9 0
BBX 4 10 3 -5
BITMAP
F0
F0
F0
F0
F0
30
60
60
40
C0
ENDCHAR
STARTCHAR 045
ENCODING 45
SWIDTH 720 0
DWIDTH 10 0
BBX 8 3 1 7
BITMAP
FF
FF
FF
ENDCHAR
STARTCHAR 046
ENCODING 46
SWIDTH 648 0
DWIDTH 9 0
BBX 4 5 2 0
BITMAP
F0
F0
F0
F0
F0
ENDCHAR
STARTCHAR 047
ENCODING 47
SWIDTH 1224 0
DWIDTH 17 0
BBX 15 30 0 -6
BITMAP
000E
001C
001C
0038
0038
0038
0070
0070
00E0
00E0
01C0
01C0
01C0
0380
0380
0700
0700
0E00
0E00
0E00
1C00
1C00
3800
3800
7000
7000
7000
E000
E000
C000
ENDCHAR
STARTCHAR 048
ENCODING 48
SWIDTH 2016 0
DWIDTH 28 0
BBX 20 32 4 0
BITMAP
03FC00
07FE00
1FFF80
1FFF80
3F9FC0
3F0FC0
7E07E0
7E07E0
7E07E0
FC03F0
FC03F0
FC03F0
FC03F0
FC03F0
FC03F0
FC03F0
FC03F0
FC03F0
FC03F0
FC03F0
FC03F0
FC03F0
FC03F0
7E07E0
7E07E0
7E07E0
3F0FC0
3F9FC0
1FFF80
0FFF00
07FE00
03FC00
ENDCHAR
STARTCHAR 049
ENCODING 49
SWIDTH 1440 0
DWIDTH 20 0
BBX 16 31 1 0
BITMAP
03E0
07E0
0FE0
1FE0
3FE0
7FE0
FFE0
FFE0
F7E0
E7E0
C7E0
07E0
07E0
07E0
07E0
07E0
07E0
07E0
07E0
07E0
07E0
07E0
07E0
07E0
07E0
07E0
07E0
FFFF
FFFF
FFFF
FFFF
ENDCHAR
STARTCHAR 050
ENCODING 50
SWIDTH 1728 0
DWIDTH 24 0
BBX 20 31 2 0
BITMAP
03FC00
0FFF00
1FFFC0
3FFFC0
3F0FE0
7E07E0
7C07F0
FC03F0
F803F0
F803F0
0003F0
0003F0
0007E0
0007E0
000FE0
000FC0
001F80
003F80
007F00
00FE00
01FC00
03F800
07F000
0FE000
1F8000
3F0000
7E0000
FFFFF0
FFFFF0
FFFFF0
FFFFF0
ENDCHAR
STARTCHAR 051
ENCODING 51
SWIDTH 1800 0
DWIDTH 25 0
BBX 21 32 2 0
BITMAP
01FE00
07FF80
0FFFC0
1FFFE0
3F8FE0
3E07F0
7E03F0
7C03F0
0003F0
0003F0
0003F0
0007E0
000FE0
01FFC0
01FF80
01FFC0
01FFE0
000FF0
0003F0
0003F8
0001F8
0001F8
F801F8
F801F8
FC01F0
7C03F0
7E03F0
3F0FE0
3FFFC0
1FFF80
0FFF00
03FC00
ENDCHAR
STARTCHAR 052
ENCODING 52
SWIDTH 1872 0
DWIDTH 26 0
BBX 22 31 2 0
BITMAP
001FC0
003FC0
003FC0
007FC0
00FFC0
00FFC0
01FFC0
01FFC0
03FFC0
03EFC0
07EFC0
07CFC0
0FCFC0
0F8FC0
1F0FC0
1F0FC0
3E0FC0
7E0FC0
7C0FC0
FC0FC0
FFFFFC
FFFFFC
FFFFFC
FFFFFC
000FC0
000FC0
000FC0
000FC0
000FC0
000FC0
000FC0
ENDCHAR
STARTCHAR 053
ENCODING 53
SWIDTH 1800 0
DWIDTH 25 0
BBX 20 31 3 0
BITMAP
FFFFF0
FFFFF0
FFFFF0
FFFFF0
FC0000
FC0000
FC0000
FC0000
FC0000
FC0000
FFFE00
FFFF80
FFFFC0
FFFFC0
FE1FE0
F807E0
F807F0
0003F0
0003F0
0003F0
0003F0
0003F0
0003F0
0003F0
3803E0
FC07E0
FE1FE0
7FFFC0
3FFF80
1FFF00
07FC00
ENDCHAR
STARTCHAR 054
ENCODING 54
SWIDTH 1800 0
DWIDTH 25 0
BBX 21 31 2 0
BITMAP
00FE00
03FF80
0FFFC0
0FFFE0
1F87F0
3F03F0
3E01F8
7E00F8
7C0000
7C0000
7C0000
F80000
F8FE00
FBFF80
FFFFC0
FFFFE0
FF8FF0
FF03F0
FE03F8
FC01F8
FC01F8
FC01F8
7C01F8
7C01F8
7E03F0
3F03F0
3F87F0
1FFFE0
0FFFC0
07FF80
01FE00
ENDCHAR
STARTCHAR 055
ENCODING 55
SWIDTH 1512 0
DWIDTH 21 0
BBX 19 31 1 0
BITMAP
FFFFE0
FFFFE0
FFFFE0
FFFFE0
FFFFC0
0007C0
000F80
001F00
001F00
003E00
003E00
007E00
007C00
00FC00
00F800
00F800
01F800
01F800
01F000
03F000
03F000
03F000
03F000
07E000
07E000
07E000
07E000
07E000
07E000
07E000
07E000
ENDCHAR
STARTCHAR 056
ENCODING 56
SWIDTH 1584 0
DWIDTH 22 0
BBX 20 31 1 0
BITMAP
07FE00
0FFF00
1FFF80
3FFFC0
7F0FE0
7E07E0
FC03F0
FC03F0
FC03F0
FC03F0
7E07E0
7F0FE0
3FFFC0
1FFF80
0FFF00
1FFF80
3FFFC0
7FFFE0
7E07E0
FC03F0
F801F0
F801F0
F801F0
F801F0
FC03F0
FC03F0
7F0FE0
7FFFE0
3FFFC0
1FFF80
07FE00
ENDCHAR
STARTCHAR 057
ENCODING 57
SWIDTH 1800 0
DWIDTH 25 0
BBX 21 31 2 0
BITMAP
03FC00
0FFF00
1FFF80
3FFFC0
7F0FE0
7E07E0
FE03F0
FC01F0
FC01F0
FC01F8
FC01F8
FC01F8
FE03F8
7E07F8
7F8FF8
3FFFF8
1FFFF8
0FFEF8
03F8F8
0000F8
0001F8
0001F0
0001F0
0003F0
F803E0
FC07E0
7E0FC0
3FFF80
3FFF80
0FFE00
03F800
ENDCHAR
STARTCHAR 058
ENCODING 58
SWIDTH 648 0
DWIDTH 9 0
BBX 4 18 2 0
BITMAP
F0
F0
F0
F0
F0
00
00
00
00
00
00
00
00
F0
F0
F0
F0
F0
ENDCHAR
STARTCHAR 059
ENCODING 59
SWIDTH 648 0
DWIDTH 9 0
BBX 4 23 3 -5
BITMAP
F0
F0
F0
F0
F0
00
00
00
00
00
00
00
00
F0
F0
F0
F0
F0
30
60
60
40
C0
ENDCHAR
STARTCHAR 060
ENCODING 60
SWIDTH 1296 0
DWIDTH 18 0
BBX 15 19 1 3
BITMAP
0002
000E
003E
00FE
03F8
0FE0
3F80
7E00
F800
E000
F800
7E00
3F80
0FE0
03F8
00FE
003E
000E
0002
ENDCHAR
STARTCHAR 061
ENCODING 61
SWIDTH 1296 0
DWIDTH 18 0
BBX 14 8 2 8
BITMAP
FFFC
FFFC
FFFC
0000
0000
FFFC
FFFC
FFFC
ENDCHAR
STARTCHAR 062
ENCODING 62
SWIDTH 1296 0
DWIDTH 18 0
BBX 15 19 2 3
BITMAP
8000
E000
F800
FE00
3F80
0FE0
03F8
00FC
003E
000E
003E
00FC
03F8
0FE0
3F80
FE00
F800
E000
8000
ENDCHAR
STARTCHAR 063
ENCODING 63
SWIDTH 1296 0
DWIDTH 18 0
BBX 15 24 1 0
BITMAP
0FE0
1FF8
3FFC
783C
701E
F01E
E01E
601E
001E
003C
007C
01F8
03F0
03E0
07C0
0780
0780
0780
0000
0000
0780
0780
0780
0780
ENDCHAR
STARTCHAR 064
ENCODING 64
SWIDTH 1512 0
DWIDTH 21 0
BBX 21 24 0 0
BITMAP
00FE00
07FF80
0F03C0
1C00E0
380070
300030
60FB30
61FB18
E3FF18
C3CF18
C78618
C70618
C70618
C70638
C70E30
C78E70
63FFE0
63F7E0
71E380
380000
1C0040
0F01E0
07FFC0
00FE00
ENDCHAR
STARTCHAR 065
ENCODING 65
SWIDTH 2160 0
DWIDTH 30 0
BBX 24 31 3 0
BITMAP
00FF00
00FF00
00FF00
00FF00
01FF80
01FF80
01FF80
01FF80
03FFC0
03FFC0
03E7C0
07E7E0
07E7E0
07E7E0
07C3E0
0FC3F0
0FC3F0
0FC3F0
1F81F8
1F81F8
1FFFF8
1FFFF8
3FFFFC
3FFFFC
3F00FC
3F00FC
7E007E
7E007E
7E007E
FC003F
FC003F
ENDCHAR
STARTCHAR 066
ENCODING 66
SWIDTH 1440 0
DWIDTH 20 0
BBX 16 24 2 0
BITMAP
FFF0
FFF8
FFFC
F03E
F01E
F01E
F01E
F01E
F03E
F07C
FFF8
FFF0
FFFC
F03E
F01E
F00F
F00F
F00F
F00F
F01F
F03E
FFFE
FFFC
FFF0
ENDCHAR
STARTCHAR 067
ENCODING 67
SWIDTH 1368 0
DWIDTH 19 0
BBX 17 24 1 0
BITMAP
03F000
0FFC00
1FFE00
3E1E00
7C0F00
780F00
780780
F00780
F00780
F00000
F00000
F00000
F00000
F00000
F00000
F00780
F00780
780F80
780F00
7C0F00
3E1E00
1FFE00
0FFC00
03F000
ENDCHAR
STARTCHAR 068
ENCODING 68
SWIDTH 1440 0
DWIDTH 20 0
BBX 16 24 2 0
BITMAP
FF80
FFF0
FFF8
F0FC
F03C
F01E
F01E
F01F
F00F
F00F
F00F
F00F
F00F
F00F
F00F
F00F
F01E
F01E
F01E
F03C
F0FC
FFF8
FFE0
FF80
ENDCHAR
STARTCHAR 069
ENCODING 69
SWIDTH 1224 0
DWIDTH 17 0
BBX 15 24 2 0
BITMAP
FFFE
FFFE
FFFE
F000
F000
F000
F000
F000
F000
F000
FFF8
FFF8
FFF8
F000
F000
F000
F000
F000
F000
F000
F000
FFFE
FFFE
FFFE
ENDCHAR
STARTCHAR 070
ENCODING 70
SWIDTH 1080 0
DWIDTH 15 0
BBX 13 24 2 0
BITMAP
FFF8
FFF8
FFF8
F000
F000
F000
F000
F000
F000
F000
FFE0
FFE0
FFE0
F000
F000
F000
F000
F000
F000
F000
F000
F000
F000
F000
ENDCHAR
STARTCHAR 071
ENCODING 71
SWIDTH 1440 0
DWIDTH 20 0
BBX 17 24 1 0
BITMAP
03F000
0FFC00
1FFE00
3E1F00
3C0F00
780F80
780780
F00600
F00000
F00000
F00000
F00000
F07F80
F07F80
F07F80
F00780
F00780
780780
780F80
7C0F80
3E1F80
1FFF80
0FFB80
03E180
ENDCHAR
STARTCHAR 072
ENCODING 72
SWIDTH 1440 0
DWIDTH 20 0
BBX 15 24 2 0
BITMAP
F01E
F01E
F01E
F01E
F01E
F01E
F01E
F01E
F01E
F01E
FFFE
FFFE
FFFE
F01E
F01E
F01E
F01E
F01E
F01E
F01E
F01E
F01E
F01E
F01E
ENDCHAR
STARTCHAR 073
ENCODING 73
SWIDTH 288 0
DWIDTH 4 0
BBX 4 20 0 6
BITMAP
F0
F0
F0
F0
F0
F0
F0
F0
F0
F0
F0
F0
F0
F0
F0
F0
F0
F0
F0
F0
ENDCHAR
STARTCHAR 074
ENCODING 74
SWIDTH 792 0
DWIDTH 11 0
BBX 8 24 0 0
BITMAP
0F
0F
0F
0F
0F
0F
0F
0F
0F
0F
0F
0F
0F
0F
0F
0F
0F
0F
0F
0F
1F
FE
FC
F8
ENDCHAR
STARTCHAR 075
ENCODING 75
SWIDTH 1296 0
DWIDTH 18 0
BBX 16 24 2 0
BITMAP
F03E
F07C
F078
F0F8
F1F0
F1E0
F3E0
F3C0
F780
FF80
FFC0
FFC0
FDE0
FDE0
F8F0
F0F0
F0F8
F078
F078
F03C
F03C
F01E
F01E
F01F
ENDCHAR
STARTCHAR 076
ENCODING 76
SWIDTH 1080 0
DWIDTH 15 0
BBX 13 24 2 0
BITMAP
F000
F000
F000
F000
F000
F000
F000
F000
F000
F000
F000
F000
F000
F000
F000
F000
F000
F000
F000
F000
F000
FFF8
FFF8
FFF8
ENDCHAR
STARTCHAR 077
ENCODING 77
SWIDTH 1872 0
DWIDTH 26 0
BBX 21 24 2 0
BITMAP
FC01F8
FC01F8
FC03F8
FC03F8
FE03F8
EE0378
EE0778
EF0778
EF0778
E70E78
E70E78
E78E78
E78E78
E39C78
E3DC78
E3DC78
E1F878
E1F878
E1F878
E1F878
E0F078
E0F078
E0F078
E0F078
ENDCHAR
STARTCHAR 078
ENCODING 78
SWIDTH 1440 0
DWIDTH 20 0
BBX 15 24 2 0
BITMAP
F80E
FC0E
FC0E
FE0E
FE0E
FE0E
EF0E
EF0E
EF8E
E78E
E78E
E3CE
E3CE
E3CE
E1EE
E1EE
E0FE
E0FE
E0FE
E07E
E07E
E03E
E03E
E03E
ENDCHAR
STARTCHAR 079
ENCODING 79
SWIDTH 1440 0
DWIDTH 20 0
BBX 17 24 1 0
BITMAP
07F000
0FF800
1FFC00
3E3E00
780F00
780F00
780F00
F00780
F00780
F00780
F00780
F00780
F00780
F00780
F00780
F00780
F00780
780F00
780F00
780F00
3E3E00
1FFC00
0FF800
03F000
ENDCHAR
STARTCHAR 080
ENCODING 80
SWIDTH 1296 0
DWIDTH 18 0
BBX 15 24 2 0
BITMAP
FFE0
FFF8
FFFC
F03C
F01E
F01E
F01E
F01E
F01E
F01E
F01E
F03C
FFFC
FFF8
FFE0
F000
F000
F000
F000
F000
F000
F000
F000
F000
ENDCHAR
STARTCHAR 081
ENCODING 81
SWIDTH 1440 0
DWIDTH 20 0
BBX 17 30 1 -6
BITMAP
03F000
0FF800
1FFC00
3E3E00
781F00
780F00
780F00
F00780
F00780
F00780
F00780
F00780
F00780
F00780
F00780
F00780
F00780
780F00
780F00
781F00
3E3E00
1FFC00
0FF800
07E000
00E000
00E000
00F000
007F00
007F00
001F00
ENDCHAR
STARTCHAR 082
ENCODING 82
SWIDTH 1368 0
DWIDTH 19 0
BBX 16 24 2 0
BITMAP
FFE0
FFF8
FFFC
F07C
F03E
F01E
F01E
F01E
F01E
F03E
F07C
FFFC
FFF8
FFF0
F0F0
F0F0
F078
F078
F03C
F03C
F03E
F01E
F01E
F01F
ENDCHAR
STARTCHAR 083
ENCODING 83
SWIDTH 1296 0
DWIDTH 18 0
BBX 16 24 1 0
BITMAP
07E0
1FF8
3FF8
3C3C
781E
781E
7808
7800
7C00
3F80
3FE0
1FF8
07FC
01FE
003F
001F
300F
F00F
F80F
781F
7C1E
3FFC
1FF8
07E0
ENDCHAR
STARTCHAR 084
ENCODING 84
SWIDTH 1008 0
DWIDTH 14 0
BBX 14 24 0 0
BITMAP
FFFC
FFFC
FFFC
0780
0780
0780
0780
0780
0780
0780
0780
0780
0780
0780
0780
0780
0780
0780
0780
0780
0780
0780
0780
0780
ENDCHAR
STARTCHAR 085
ENCODING 85
SWIDTH 1440 0
DWIDTH 20 0
BBX 15 24 2 0
BITMAP
F01E
F01E
F01E
F01E
F01E
F01E
F01E
F01E
F01E
F01E
F01E
F01E
F01E
F01E
F01E
F01E
F01E
F01E
F01E
F83E
7C3C
7FFC
3FF8
0FE0
ENDCHAR
STARTCHAR 086
ENCODING 86
SWIDTH 1224 0
DWIDTH 17 0
BBX 17 24 0 0
BITMAP
F00780
F00780
780F00
780F00
780F00
780F00
7C1F00
3C1E00
3C1E00
3C1E00
3E3E00
1E3C00
1E3C00
1E3C00
1E3C00
0F7800
0F7800
0F7800
0F7800
0FF800
07F000
07F000
07F000
07F000
ENDCHAR
STARTCHAR 087
ENCODING 87
SWIDTH 1800 0
DWIDTH 25 0
BBX 25 24 0 0
BITMAP
F01E0380
F01E0380
781E0700
783E0700
783F0700
783F0700
78370700
3C370E00
3C770E00
3C778E00
3C738E00
1C638E00
1C638C00
1EE3DC00
1EE3DC00
1EE1DC00
0EC1DC00
0EC1D800
0FC1F800
0FC0F800
07C0F800
0780F800
0780F000
0780F000
ENDCHAR
STARTCHAR 088
ENCODING 88
SWIDTH 1152 0
DWIDTH 16 0
BBX 16 24 0 0
BITMAP
7C0F
3C0E
3E1E
1E1C
1E3C
0F38
0F78
07F0
07F0
03E0
03E0
01E0
03F0
03F0
07F0
0F78
0E78
1E3C
1C3C
3C1E
381E
781F
700F
F00F
ENDCHAR
STARTCHAR 089
ENCODING 89
SWIDTH 1080 0
DWIDTH 15 0
BBX 15 24 0 0
BITMAP
E01E
E01E
F03E
F03C
F87C
7878
7CF8
3CF0
3EF0
1FE0
1FE0
0FC0
0FC0
0780
0780
0780
0780
0780
0780
0780
0780
0780
0780
0780
ENDCHAR
STARTCHAR 090
ENCODING 90
SWIDTH 1080 0
DWIDTH 15 0
BBX 15 24 0 0
BITMAP
7FFE
7FFE
7FFE
003C
007C
0078
00F8
00F0
01F0
01E0
03E0
07C0
0780
0F80
0F00
1F00
1E00
3E00
3C00
7C00
F800
FFFE
FFFE
FFFE
ENDCHAR
STARTCHAR 091
ENCODING 91
SWIDTH 648 0
DWIDTH 9 0
BBX 7 30 2 -6
BITMAP
FE
FE
FE
F0
F0
F0
F0
F0
F0
F0
F0
F0
F0
F0
F0
F0
F0
F0
F0
F0
F0
F0
F0
F0
F0
F0
F0
FE
FE
FE
ENDCHAR
STARTCHAR 092
ENCODING 92
SWIDTH 1224 0
DWIDTH 17 0
BBX 15 30 2 -6
BITMAP
E000
7000
7000
3800
3800
3800
1C00
1C00
0E00
0E00
0700
0700
0380
0380
0380
01C0
01C0
00E0
00E0
0070
0070
0038
0038
0038
001C
001C
000E
000E
0006
0006
ENDCHAR
STARTCHAR 093
ENCODING 93
SWIDTH 648 0
DWIDTH 9 0
BBX 7 30 0 -6
BITMAP
FE
FE
FE
1E
1E
1E
1E
1E
1E
1E
1E
1E
1E
1E
1E
1E
1E
1E
1E
1E
1E
1E
1E
1E
1E
1E
1E
FE
FE
FE
ENDCHAR
STARTCHAR 094
ENCODING 94
SWIDTH 1296 0
DWIDTH 18 0
BBX 17 12 0 12
BITMAP
01C000
03E000
03E000
077000
077000
0E3800
1E3C00
1C1C00
380E00
380E00
700700
F00780
ENDCHAR
STARTCHAR 095
ENCODING 95
SWIDTH 1296 0
DWIDTH 18 0
BBX 18 4 0 -6
BITMAP
FFFFC0
FFFFC0
FFFFC0
FFFFC0
ENDCHAR
STARTCHAR 096
ENCODING 96
SWIDTH 1296 0
DWIDTH 18 0
BBX 8 6 4 20
BITMAP
20
70
F8
3C
0F
02
ENDCHAR
STARTCHAR 097
ENCODING 97
SWIDTH 1224 0
DWIDTH 17 0
BBX 14 18 1 0
BITMAP
07E0
1FF8
3FF8
7C7C
783C
003C
003C
0FFC
3FFC
7C3C
783C
F03C
F03C
F07C
F8FC
7FFC
7FBC
1F3C
ENDCHAR
STARTCHAR 098
ENCODING 98
SWIDTH 1224 0
DWIDTH 17 0
BBX 14 24 2 0
BITMAP
F000
F000
F000
F000
F000
F000
F3C0
F7F0
FFF8
FC78
F878
F03C
F03C
F03C
F03C
F03C
F03C
F03C
F03C
F878
F878
FFF0
EFF0
C7C0
ENDCHAR
STARTCHAR 099
ENCODING 99
SWIDTH 1080 0
DWIDTH 15 0
BBX 14 18 1 0
BITMAP
0FC0
1FF0
3FF8
7C78
787C
F03C
F03C
F000
F000
F000
F000
F03C
F03C
787C
7C78
3FF8
1FF0
0FC0
ENDCHAR
STARTCHAR 100
ENCODING 100
SWIDTH 1584 0
DWIDTH 22 0
BBX 18 31 2 0
BITMAP
000FC0
000FC0
000FC0
000FC0
000FC0
000FC0
000FC0
000FC0
000FC0
000FC0
000FC0
07CFC0
1FEFC0
1FFFC0
3FFFC0
7F3FC0
7E1FC0
7E1FC0
FC0FC0
FC0FC0
FC0FC0
FC0FC0
FC0FC0
FC0FC0
7E1FC0
7E1FC0
3F3FC0
3FFFC0
3FFFC0
1FEFC0
07CFC0
ENDCHAR
STARTCHAR 101
ENCODING 101
SWIDTH 1152 0
DWIDTH 16 0
BBX 14 18 1 0
BITMAP
0FC0
1FE0
3FF0
7878
7838
F03C
F03C
FFFC
FFFC
FFFC
F000
F000
F03C
707C
7878
3FF8
1FF0
0FC0
ENDCHAR
STARTCHAR 102
ENCODING 102
SWIDTH 648 0
DWIDTH 9 0
BBX 9 24 0 0
BITMAP
0780
1F80
3F80
3E00
3C00
3C00
FF80
FF80
FF80
3C00
3C00
3C00
3C00
3C00
3C00
3C00
3C00
3C00
3C00
3C00
3C00
3C00
3C00
3C00
ENDCHAR
STARTCHAR 103
ENCODING 103
SWIDTH 1152 0
DWIDTH 16 0
BBX 15 27 1 -6
BITMAP
000E
001E
001E
07D8
1FF8
3C78
783C
783C
783C
783C
783C
3C78
1FF0
3FE0
7000
7000
7800
7FF0
3FFC
1FFE
703E
F01E
F01E
F83E
FFFC
7FF8
1FE0
ENDCHAR
STARTCHAR 104
ENCODING 104
SWIDTH 1224 0
DWIDTH 17 0
BBX 13 24 2 0
BITMAP
F000
F000
F000
F000
F000
F000
F3E0
F7F0
FFF8
F8F8
F878
F078
F078
F078
F078
F078
F078
F078
F078
F078
F078
F078
F078
F078
ENDCHAR
STARTCHAR 105
ENCODING 105
SWIDTH 576 0
DWIDTH 8 0
BBX 4 24 2 0
BITMAP
F0
F0
F0
F0
00
00
F0
F0
F0
F0
F0
F0
F0
F0
F0
F0
F0
F0
F0
F0
F0
F0
F0
F0
ENDCHAR
STARTCHAR 106
ENCODING 106
SWIDTH 576 0
DWIDTH 8 0
BBX 6 30 0 -6
BITMAP
3C
3C
3C
3C
00
00
3C
3C
3C
3C
3C
3C
3C
3C
3C
3C
3C
3C
3C
3C
3C
3C
3C
3C
3C
3C
3C
FC
F8
F0
ENDCHAR
STARTCHAR 107
ENCODING 107
SWIDTH 1080 0
DWIDTH 15 0
BBX 13 24 2 0
BITMAP
F000
F000
F000
F000
F000
F000
F078
F0F0
F0E0
F1E0
F3C0
F380
F700
FF80
FF80
FFC0
FBC0
FBC0
F1E0
F1E0
F1F0
F0F0
F0F0
F078
ENDCHAR
STARTCHAR 108
ENCODING 108
SWIDTH 576 0
DWIDTH 8 0
BBX 4 24 2 0
BITMAP
F0
F0
F0
F0
F0
F0
F0
F0
F0
F0
F0
F0
F0
F0
F0
F0
F0
F0
F0
F0
F0
F0
F0
F0
ENDCHAR
STARTCHAR 109
ENCODING 109
SWIDTH 1800 0
DWIDTH 25 0
BBX 22 18 2 0
BITMAP
F3E1F0
F7F3F8
FFF7FC
F8FC7C
F07C3C
F0783C
F0783C
F0783C
F0783C
F0783C
F0783C
F0783C
F0783C
F0783C
F0783C
F0783C
F0783C
F0783C
ENDCHAR
STARTCHAR 110
ENCODING 110
SWIDTH 1224 0
DWIDTH 17 0
BBX 13 18 2 0
BITMAP
F3E0
F7F0
FFF8
F8F8
F878
F078
F078
F078
F078
F078
F078
F078
F078
F078
F078
F078
F078
F078
ENDCHAR
STARTCHAR 111
ENCODING 111
SWIDTH 1224 0
DWIDTH 17 0
BBX 15 18 1 0
BITMAP
0FE0
1FF0
3FF8
7C7C
783C
F01E
F01E
F01E
F01E
F01E
F01E
F01E
F01E
783C
7C7C
3FF8
1FF0
0FE0
ENDCHAR
STARTCHAR 112
ENCODING 112
SWIDTH 1224 0
DWIDTH 17 0
BBX 14 24 2 -6
BITMAP
F3C0
F7F0
FFF8
FC78
F878
F03C
F03C
F03C
F03C
F03C
F03C
F03C
F03C
F878
F8F8
FFF0
FFF0
F3C0
F000
F000
F000
F000
F000
F000
ENDCHAR
STARTCHAR 113
ENCODING 113
SWIDTH 1224 0
DWIDTH 17 0
BBX 14 24 1 -6
BITMAP
0F0C
3FDC
3FDC
78FC
787C
F03C
F03C
F03C
F03C
F03C
F03C
F03C
F03C
787C
78FC
7FFC
3FBC
0F3C
003C
003C
003C
003C
003C
003C
ENDCHAR
STARTCHAR 114
ENCODING 114
SWIDTH 720 0
DWIDTH 10 0
BBX 8 18 2 0
BITMAP
F1
F7
F7
FF
FC
F8
F0
F0
F0
F0
F0
F0
F0
F0
F0
F0
F0
F0
ENDCHAR
STARTCHAR 115
ENCODING 115
SWIDTH 1008 0
DWIDTH 14 0
BBX 12 18 1 0
BITMAP
1F80
3FC0
7FE0
F9F0
F0E0
F000
F800
7E00
7FC0
1FE0
07F0
01F0
70F0
F0F0
F9F0
7FE0
3FC0
1F80
ENDCHAR
STARTCHAR 116
ENCODING 116
SWIDTH 720 0
DWIDTH 10 0
BBX 10 23 0 0
BITMAP
3C00
3C00
3C00
3C00
3C00
FF80
FF80
FF80
3C00
3C00
3C00
3C00
3C00
3C00
3C00
3C00
3C00
3C00
3C00
3E00
3FC0
1FC0
0FC0
ENDCHAR
STARTCHAR 117
ENCODING 117
SWIDTH 1224 0
DWIDTH 17 0
BBX 13 18 2 0
BITMAP
F078
F078
F078
F078
F078
F078
F078
F078
F078
F078
F078
F078
F078
F0F8
F8F8
FFF8
7F78
3E78
ENDCHAR
STARTCHAR 118
ENCODING 118
SWIDTH 936 0
DWIDTH 13 0
BBX 13 18 0 0
BITMAP
F038
F078
F870
7870
7870
78F0
78E0
7CE0
3CE0
3DE0
3DC0
3DC0
3DC0
1F80
1F80
1F80
1F80
1F00
ENDCHAR
STARTCHAR 119
ENCODING 119
SWIDTH 1440 0
DWIDTH 20 0
BBX 20 18 0 0
BITMAP
F07810
F07C10
787C30
787C30
78FC30
78DC60
78DE60
3CDE60
3DDE60
3D9EC0
3D9EC0
3D8EC0
1F8F80
1F0F80
1F0F80
1F0F80
1F0700
0E0700
ENDCHAR
STARTCHAR 120
ENCODING 120
SWIDTH 936 0
DWIDTH 13 0
BBX 13 18 0 0
BITMAP
F878
7870
7CF0
3CE0
3FC0
1FC0
1F80
0F80
0F80
0FC0
1FC0
1FE0
3DE0
39F0
70F0
F0F8
E078
E078
ENDCHAR
STARTCHAR 121
ENCODING 121
SWIDTH 936 0
DWIDTH 13 0
BBX 13 24 0 -6
BITMAP
F038
F878
7870
7870
7870
38E0
3CE0
3CE0
3CC0
1DC0
1FC0
1FC0
0F80
0F80
0F80
0F00
0700
0700
0600
0E00
1E00
FC00
FC00
F000
ENDCHAR
STARTCHAR 122
ENCODING 122
SWIDTH 864 0
DWIDTH 12 0
BBX 11 18 1 0
BITMAP
7FE0
7FE0
7FE0
03C0
07C0
0780
0F80
0F00
1F00
1E00
3E00
3C00
7C00
7800
F800
FFE0
FFE0
FFE0
ENDCHAR
STARTCHAR 123
ENCODING 123
SWIDTH 648 0
DWIDTH 9 0
BBX 8 30 1 -6
BITMAP
0F
1F
3C
3C
3C
3C
3C
3C
3C
3C
3C
3C
3C
3C
F8
F8
3C
3C
3C
3C
3C
3C
3C
3C
3C
3C
3C
3C
1F
0F
ENDCHAR
STARTCHAR 124
ENCODING 124
SWIDTH 1296 0
DWIDTH 18 0
BBX 4 20 7 6
BITMAP
F0
F0
F0
F0
F0
F0
F0
F0
F0
F0
F0
F0
F0
F0
F0
F0
F0
F0
F0
F0
ENDCHAR
STARTCHAR 125
ENCODING 125
SWIDTH 648 0
DWIDTH 9 0
BBX 8 30 0 -6
BITMAP
F0
F8
3C
3C
3C
3C
3C
3C
3C
3C
3C
3C
3C
3E
1F
1F
3E
3C
3C
3C
3C
3C
3C
3C
3C
3C
3C
3C
F8
F0
ENDCHAR
STARTCHAR 126
ENCODING 126
SWIDTH 1728 0
DWIDTH 24 0
BBX 18 6 3 8
BITMAP
1F0180
3FE3C0
7FFF80
7FFF80
E1FF00
403E00
ENDCHAR
STARTCHAR 127
ENCODING 127
SWIDTH 2592 0
DWIDTH 36 0
BBX 9 27 1 1
BITMAP
FF80
FF80
C180
C180
C180
C180
C180
C180
C180
C180
C180
C180
C180
C180
C180
C180
C180
C180
C180
C180
C180
C180
C180
C180
C180
FF80
FF80
ENDCHAR
STARTCHAR 128
ENCODING 128
SWIDTH 0 0
DWIDTH 0 0
BBX 0 0 0 0
BITMAP
ENDCHAR
STARTCHAR 129
ENCODING 129
SWIDTH 0 0
DWIDTH 0 0
BBX 0 0 0 0
BITMAP
ENDCHAR
STARTCHAR 130
ENCODING 130
SWIDTH 0 0
DWIDTH 0 0
BBX 0 0 0 0
BITMAP
ENDCHAR
STARTCHAR 131
ENCODING 131
SWIDTH 0 0
DWIDTH 0 0
BBX 0 0 0 0
BITMAP
ENDCHAR
STARTCHAR 132
ENCODING 132
SWIDTH 0 0
DWIDTH 0 0
BBX 0 0 0 0
BITMAP
ENDCHAR
STARTCHAR 133
ENCODING 133
SWIDTH 0 0
DWIDTH 0 0
BBX 0 0 0 0
BITMAP
ENDCHAR
STARTCHAR 134
ENCODING 134
SWIDTH 0 0
DWIDTH 0 0
BBX 0 0 0 0
BITMAP
ENDCHAR
STARTCHAR 135
ENCODING 135
SWIDTH 0 0
DWIDTH 0 0
BBX 0 0 0 0
BITMAP
ENDCHAR
STARTCHAR 136
ENCODING 136
SWIDTH 0 0
DWIDTH 0 0
BBX 0 0 0 0
BITMAP
ENDCHAR
STARTCHAR 137
ENCODING 137
SWIDTH 0 0
DWIDTH 0 0
BBX 0 0 0 0
BITMAP
ENDCHAR
STARTCHAR 138
ENCODING 138
SWIDTH 0 0
DWIDTH 0 0
BBX 0 0 0 0
BITMAP
ENDCHAR
STARTCHAR 139
ENCODING 139
SWIDTH 0 0
DWIDTH 0 0
BBX 0 0 0 0
BITMAP
ENDCHAR
STARTCHAR 140
ENCODING 140
SWIDTH 0 0
DWIDTH 0 0
BBX 0 0 0 0
BITMAP
ENDCHAR
STARTCHAR 141
ENCODING 141
SWIDTH 0 0
DWIDTH 0 0
BBX 0 0 0 0
BITMAP
ENDCHAR
STARTCHAR 142
ENCODING 142
SWIDTH 0 0
DWIDTH 0 0
BBX 0 0 0 0
BITMAP
ENDCHAR
STARTCHAR 143
ENCODING 143
SWIDTH 0 0
DWIDTH 0 0
BBX 0 0 0 0
BITMAP
ENDCHAR
STARTCHAR 144
ENCODING 144
SWIDTH 0 0
DWIDTH 0 0
BBX 0 0 0 0
BITMAP
ENDCHAR
STARTCHAR 145
ENCODING 145
SWIDTH 0 0
DWIDTH 0 0
BBX 0 0 0 0
BITMAP
ENDCHAR
STARTCHAR 146
ENCODING 146
SWIDTH 0 0
DWIDTH 0 0
BBX 0 0 0 0
BITMAP
ENDCHAR
STARTCHAR 147
ENCODING 147
SWIDTH 0 0
DWIDTH 0 0
BBX 0 0 0 0
BITMAP
ENDCHAR
STARTCHAR 148
ENCODING 148
SWIDTH 0 0
DWIDTH 0 0
BBX 0 0 0 0
BITMAP
ENDCHAR
STARTCHAR 149
ENCODING 149
SWIDTH 0 0
DWIDTH 0 0
BBX 0 0 0 0
BITMAP
ENDCHAR
STARTCHAR 150
ENCODING 150
SWIDTH 0 0
DWIDTH 0 0
BBX 0 0 0 0
BITMAP
ENDCHAR
STARTCHAR 151
ENCODING 151
SWIDTH 0 0
DWIDTH 0 0
BBX 0 0 0 0
BITMAP
ENDCHAR
STARTCHAR 152
ENCODING 152
SWIDTH 0 0
DWIDTH 0 0
BBX 0 0 0 0
BITMAP
ENDCHAR
STARTCHAR 153
ENCODING 153
SWIDTH 0 0
DWIDTH 0 0
BBX 0 0 0 0
BITMAP
ENDCHAR
STARTCHAR 154
ENCODING 154
SWIDTH 0 0
DWIDTH 0 0
BBX 0 0 0 0
BITMAP
ENDCHAR
STARTCHAR 155
ENCODING 155
SWIDTH 0 0
DWIDTH 0 0
BBX 0 0 0 0
BITMAP
ENDCHAR
STARTCHAR 156
ENCODING 156
SWIDTH 0 0
DWIDTH 0 0
BBX 0 0 0 0
BITMAP
ENDCHAR
STARTCHAR 157
ENCODING 157
SWIDTH 0 0
DWIDTH 0 0
BBX 0 0 0 0
BITMAP
ENDCHAR
STARTCHAR 158
ENCODING 158
SWIDTH 0 0
DWIDTH 0 0
BBX 0 0 0 0
BITMAP
ENDCHAR
STARTCHAR 159
ENCODING 159
SWIDTH 0 0
DWIDTH 0 0
BBX 0 0 0 0
BITMAP
ENDCHAR
STARTCHAR 160
ENCODING 160
SWIDTH 504 0
DWIDTH 7 0
BBX 0 0 0 0
BITMAP
ENDCHAR
STARTCHAR 161
ENCODING 161
SWIDTH 864 0
DWIDTH 12 0
BBX 4 24 4 -6
BITMAP
F0
F0
F0
F0
00
00
60
60
60
60
60
60
60
60
60
F0
F0
F0
F0
F0
F0
F0
F0
F0
ENDCHAR
STARTCHAR 162
ENCODING 162
SWIDTH 1296 0
DWIDTH 18 0
BBX 13 24 2 0
BITMAP
0300
0300
0300
0FC0
1FE0
3FF0
7B70
7B38
F338
F300
F300
F300
F300
F300
F338
7B38
7B70
3FF0
1FE0
0FC0
0300
0300
0300
0300
ENDCHAR
STARTCHAR 163
ENCODING 163
SWIDTH 1296 0
DWIDTH 18 0
BBX 17 24 1 0
BITMAP
01F800
03FE00
07FE00
078F00
0F0400
0F0000
0F0000
0F0000
0F0000
0F0000
3FF800
3FF800
3FF800
078000
078000
078000
078000
078000
070200
0E0780
1C0F80
FFFF00
FFFE00
FFF800
ENDCHAR
STARTCHAR 164
ENCODING 164
SWIDTH 1296 0
DWIDTH 18 0
BBX 16 16 1 4
BITMAP
2004
700E
FBDF
7FFE
3FFC
1C38
381C
381C
381C
381C
1C38
3FFC
7FFE
FBDF
700E
2004
ENDCHAR
STARTCHAR 165
ENCODING 165
SWIDTH 1296 0
DWIDTH 18 0
BBX 18 24 0 0
BITMAP
F807C0
780780
7C0F80
3C0F00
3E1F00
1E1E00
1F1E00
0F3C00
0F3C00
07F800
7FFF80
7FFF80
03F000
01E000
7FFF80
7FFF80
01E000
01E000
01E000
01E000
01E000
01E000
01E000
01E000
ENDCHAR
STARTCHAR 166
ENCODING 166
SWIDTH 1296 0
DWIDTH 18 0
BBX 4 30 7 -6
BITMAP
F0
F0
F0
F0
F0
F0
F0
F0
F0
F0
F0
F0
00
00
00
00
00
00
F0
F0
F0
F0
F0
F0
F0
F0
F0
F0
F0
F0
ENDCHAR
STARTCHAR 167
ENCODING 167
SWIDTH 1296 0
DWIDTH 18 0
BBX 14 30 2 -6
BITMAP
07E0
0FF0
1FF8
3E7C
3C38
3C00
3C00
3E00
1F80
0FC0
1FF0
3FF8
38FC
787C
781C
7C0C
7E38
3FF0
0FE0
07F0
01F8
00FC
003C
003C
703C
F03C
7878
7FF8
3FF0
0FC0
ENDCHAR
STARTCHAR 168
ENCODING 168
SWIDTH 1296 0
DWIDTH 18 0
BBX 9 4 4 20
BITMAP
6300
F780
F780
6300
ENDCHAR
STARTCHAR 169
ENCODING 169
SWIDTH 2016 0
DWIDTH 28 0
BBX 24 25 2 0
BITMAP
007E00
03FFC0
0781E0
0E0070
1C0038
383E1C
70FF0E
61E386
61C3C6
C381C3
C381C3
C38003
C38003
C38003
C38003
C381C3
61C1C6
61E386
70FF8E
383E1C
1C0038
0E0070
0781E0
03FFC0
007E00
ENDCHAR
STARTCHAR 170
ENCODING 170
SWIDTH 792 0
DWIDTH 11 0
BBX 9 11 1 10
BITMAP
3E00
7F00
E380
0380
3F80
7F80
F380
E380
E780
FD80
7980
ENDCHAR
STARTCHAR 171
ENCODING 171
SWIDTH 1008 0
DWIDTH 14 0
BBX 10 12 2 3
BITMAP
18C0
39C0
3180
7380
7380
E700
E700
7380
7380
3180
39C0
18C0
ENDCHAR
STARTCHAR 172
ENCODING 172
SWIDTH 1296 0
DWIDTH 18 0
BBX 16 9 1 0
BITMAP
FFFF
FFFF
FFFF
0007
0007
0007
0007
0007
0007
ENDCHAR
STARTCHAR 173
ENCODING 173
SWIDTH 720 0
DWIDTH 10 0
BBX 8 3 1 7
BITMAP
FF
FF
FF
ENDCHAR
STARTCHAR 174
ENCODING 174
SWIDTH 2016 0
DWIDTH 28 0
BBX 24 25 2 0
BITMAP
007E00
03FFC0
0781E0
0E0070
1C0038
39FE1C
71FF0E
61C786
61C386
C1C383
C1C383
C1C783
C1FF03
C1FE03
C1CF03
C1C703
61C706
61C386
71C38E
39C3DC
1C0038
0E0070
0781E0
03FFC0
007E00
ENDCHAR
STARTCHAR 175
ENCODING 175
SWIDTH 1296 0
DWIDTH 18 0
BBX 18 4 0 28
BITMAP
FFFFC0
FFFFC0
FFFFC0
FFFFC0
ENDCHAR
STARTCHAR 176
ENCODING 176
SWIDTH 1296 0
DWIDTH 18 0
BBX 12 10 4 14
BITMAP
1F80
3FC0
70E0
E070
E070
E070
E070
70E0
3FC0
1F80
ENDCHAR
STARTCHAR 177
ENCODING 177
SWIDTH 1296 0
DWIDTH 18 0
BBX 15 19 1 0
BITMAP
0380
0380
0380
0380
0380
0380
FFFE
FFFE
FFFE
0380
0380
0380
0380
0380
0380
0000
FFFE
FFFE
FFFE
ENDCHAR
STARTCHAR 178
ENCODING 178
SWIDTH 864 0
DWIDTH 12 0
BBX 10 14 1 10
BITMAP
1F00
7F80
71C0
E1C0
E1C0
01C0
0380
0700
0E00
3C00
7000
FFC0
FFC0
FFC0
ENDCHAR
STARTCHAR 179
ENCODING 179
SWIDTH 864 0
DWIDTH 12 0
BBX 10 14 1 10
BITMAP
1F00
7F80
F3C0
E1C0
01C0
0380
1F00
1F80
03C0
01C0
E1C0
F1C0
7F80
3F00
ENDCHAR
STARTCHAR 180
ENCODING 180
SWIDTH 1296 0
DWIDTH 18 0
BBX 8 6 7 20
BITMAP
04
0E
1F
3C
F0
40
ENDCHAR
STARTCHAR 181
ENCODING 181
SWIDTH 1296 0
DWIDTH 18 0
BBX 12 24 3 -6
BITMAP
F0F0
F0F0
F0F0
F0F0
F0F0
F0F0
F0F0
F0F0
F0F0
F0F0
F0F0
F0F0
F0F0
F0F0
F9F0
FFF0
FFF0
F770
F000
F000
F000
F000
F000
F000
ENDCHAR
STARTCHAR 182
ENCODING 182
SWIDTH 1296 0
DWIDTH 18 0
BBX 15 30 1 -6
BITMAP
0FFE
3FFE
7FE6
7FE6
FFE6
FFE6
FFE6
FFE6
FFE6
FFE6
7FE6
7FE6
3FE6
0FE6
0066
0066
0066
0066
0066
0066
0066
0066
0066
0066
0066
0066
0066
0066
0066
0066
ENDCHAR
STARTCHAR 183
ENCODING 183
SWIDTH 648 0
DWIDTH 9 0
BBX 4 5 2 7
BITMAP
F0
F0
F0
F0
F0
ENDCHAR
STARTCHAR 184
ENCODING 184
SWIDTH 1296 0
DWIDTH 18 0
BBX 7 7 6 -7
BITMAP
20
60
7C
0E
8E
FE
7C
ENDCHAR
STARTCHAR 185
ENCODING 185
SWIDTH 864 0
DWIDTH 12 0
BBX 8 14 2 10
BITMAP
1C
3C
FC
FC
9C
1C
1C
1C
1C
1C
1C
1C
FF
FF
ENDCHAR
STARTCHAR 186
ENCODING 186
SWIDTH 792 0
DWIDTH 11 0
BBX 9 11 1 10
BITMAP
3E00
7F00
F780
E380
E380
E380
E380
E380
7780
7F00
3E00
ENDCHAR
STARTCHAR 187
ENCODING 187
SWIDTH 1008 0
DWIDTH 14 0
BBX 10 12 2 3
BITMAP
C600
E700
6300
7380
7380
39C0
39C0
7380
7380
6300
E700
C600
ENDCHAR
STARTCHAR 188
ENCODING 188
SWIDTH 2016 0
DWIDTH 28 0
BBX 25 24 1 0
BITMAP
1C003000
3C006000
FC006000
FC00C000
9C01C000
1C018000
1C038000
1C030000
1C060000
1C060000
1C0C1E00
1C0C1E00
FF183E00
FF183E00
00306E00
00306E00
0060CE00
00E0CE00
00C1CE00
01C1FF80
0181FF80
03000E00
03000E00
06000E00
ENDCHAR
STARTCHAR 189
ENCODING 189
SWIDTH 2016 0
DWIDTH 28 0
BBX 24 24 2 0
BITMAP
1C0060
3C00C0
FC00C0
FC0180
9C0380
1C0300
1C0700
1C0600
1C0C00
1C0C00
1C187C
1C19FE
FF31C7
FF3387
006387
006007
00C00E
01C01C
018038
0380F0
0301C0
0603FF
0603FF
0C03FF
ENDCHAR
STARTCHAR 190
ENCODING 190
SWIDTH 2016 0
DWIDTH 28 0
BBX 24 24 2 0
BITMAP
1F0060
7F80C0
F3C0C0
E1C180
01C380
038300
1F0700
1F8600
03CC00
01CC00
E1D83C
F1D83C
7FB07C
3F307C
0060DC
0060DC
00C19C
01C19C
01839C
0383FF
0303FF
06001C
06001C
0C001C
ENDCHAR
STARTCHAR 191
ENCODING 191
SWIDTH 1296 0
DWIDTH 18 0
BBX 15 24 2 -6
BITMAP
03C0
03C0
03C0
03C0
0000
0000
03C0
03C0
03C0
07C0
0F80
1F80
3F00
7C00
7800
F800
F00C
F00E
F00E
F01C
7C3C
7FF8
3FF0
0FE0
ENDCHAR
STARTCHAR 192
ENCODING 192
SWIDTH 1296 0
DWIDTH 18 0
BBX 18 32 0 0
BITMAP
020000
070000
0F8000
03C000
00F000
002000
000000
000000
07F000
07F000
07F000
0FF800
0F7800
0F7800
0F7800
0F7C00
1E3C00
1E3C00
1E3C00
1E1E00
1E1E00
3C1E00
3C1E00
3FFF00
3FFF00
7FFF00
780F80
780780
780780
780780
F007C0
F003C0
ENDCHAR
STARTCHAR 193
ENCODING 193
SWIDTH 1296 0
DWIDTH 18 0
BBX 18 32 0 0
BITMAP
001000
003800
007C00
00F000
03C000
010000
000000
000000
07F000
07F000
07F000
0FF800
0F7800
0F7800
0F7800
0F7C00
1E3C00
1E3C00
1E3C00
1E1E00
1E1E00
3C1E00
3C1E00
3FFF00
3FFF00
7FFF00
780F80
780780
780780
780780
F007C0
F003C0
ENDCHAR
STARTCHAR 194
ENCODING 194
SWIDTH 1296 0
DWIDTH 18 0
BBX 18 31 0 0
BITMAP
004000
01F000
03F800
07BC00
1E0F00
000000
000000
07F000
07F000
07F000
0FF800
0F7800
0F7800
0F7800
0F7C00
1E3C00
1E3C00
1E3C00
1E1E00
1E1E00
3C1E00
3C1E00
3FFF00
3FFF00
7FFF00
780F80
780780
780780
780780
F007C0
F003C0
ENDCHAR
STARTCHAR 195
ENCODING 195
SWIDTH 1296 0
DWIDTH 18 0
BBX 18 30 0 0
BITMAP
070800
0FCC00
19F800
087000
000000
000000
07F000
07F000
07F000
0FF800
0F7800
0F7800
0F7800
0F7C00
1E3C00
1E3C00
1E3C00
1E1E00
1E1E00
3C1E00
3C1E00
3FFF00
3FFF00
7FFF00
780F80
780780
780780
780780
F007C0
F003C0
ENDCHAR
STARTCHAR 196
ENCODING 196
SWIDTH 1296 0
DWIDTH 18 0
BBX 18 30 0 0
BITMAP
031800
07BC00
07BC00
031800
000000
000000
07F000
07F000
07F000
0FF800
0F7800
0F7800
0F7800
0F7C00
1E3C00
1E3C00
1E3C00
1E1E00
1E1E00
3C1E00
3C1E00
3FFF00
3FFF00
7FFF00
780F80
780780
780780
780780
F007C0
F003C0
ENDCHAR
STARTCHAR 197
ENCODING 197
SWIDTH 1296 0
DWIDTH 18 0
BBX 18 33 0 0
BITMAP
01C000
03E000
063000
063000
063000
03E000
01C000
000000
000000
07F000
07F000
07F000
0FF800
0F7800
0F7800
0F7800
0F7C00
1E3C00
1E3C00
1E3C00
1E1E00
1E1E00
3C1E00
3C1E00
3FFF00
3FFF00
7FFF00
780F80
780780
780780
780780
F007C0
F003C0
ENDCHAR
STARTCHAR 198
ENCODING 198
SWIDTH 1800 0
DWIDTH 25 0
BBX 25 24 0 0
BITMAP
003FFF80
003FFF80
007FFF80
007F0000
00EF0000
00EF0000
01CF0000
01CF0000
038F0000
038F0000
030FFE00
070FFE00
070FFE00
0E0F0000
0FFF0000
1FFF0000
1FFF0000
380F0000
380F0000
700F0000
700F0000
E00FFF80
E00FFF80
E00FFF80
ENDCHAR
STARTCHAR 199
ENCODING 199
SWIDTH 1368 0
DWIDTH 19 0
BBX 17 31 1 -7
BITMAP
03F000
0FFC00
1FFE00
3E1E00
7C0F00
780F00
780780
F00780
F00780
F00000
F00000
F00000
F00000
F00000
F00000
F00780
F00780
780F80
780F00
7C0F00
3E1E00
1FFC00
0FF800
03E000
020000
020000
03E000
007000
007000
07F000
03E000
ENDCHAR
STARTCHAR 200
ENCODING 200
SWIDTH 1224 0
DWIDTH 17 0
BBX 15 32 2 0
BITMAP
0400
0E00
1F00
0780
01E0
0040
0000
0000
FFFE
FFFE
FFFE
F000
F000
F000
F000
F000
F000
F000
FFF8
FFF8
FFF8
F000
F000
F000
F000
F000
F000
F000
F000
FFFE
FFFE
FFFE
ENDCHAR
STARTCHAR 201
ENCODING 201
SWIDTH 1224 0
DWIDTH 17 0
BBX 15 32 2 0
BITMAP
0020
0070
00F8
01E0
0780
0200
0000
0000
FFFE
FFFE
FFFE
F000
F000
F000
F000
F000
F000
F000
FFF8
FFF8
FFF8
F000
F000
F000
F000
F000
F000
F000
F000
FFFE
FFFE
FFFE
ENDCHAR
STARTCHAR 202
ENCODING 202
SWIDTH 1224 0
DWIDTH 17 0
BBX 15 31 2 0
BITMAP
0100
07C0
0FE0
1EF0
783C
0000
0000
FFFE
FFFE
FFFE
F000
F000
F000
F000
F000
F000
F000
FFF8
FFF8
FFF8
F000
F000
F000
F000
F000
F000
F000
F000
FFFE
FFFE
FFFE
ENDCHAR
STARTCHAR 203
ENCODING 203
SWIDTH 1224 0
DWIDTH 17 0
BBX 15 30 2 0
BITMAP
0C60
1EF0
1EF0
0C60
0000
0000
FFFE
FFFE
FFFE
F000
F000
F000
F000
F000
F000
F000
FFF8
FFF8
FFF8
F000
F000
F000
F000
F000
F000
F000
F000
FFFE
FFFE
FFFE
ENDCHAR
STARTCHAR 204
ENCODING 204
SWIDTH 648 0
DWIDTH 9 0
BBX 7 32 0 0
BITMAP
40
E0
F0
78
1E
04
00
00
3C
3C
3C
3C
3C
3C
3C
3C
3C
3C
3C
3C
3C
3C
3C
3C
3C
3C
3C
3C
3C
3C
3C
3C
ENDCHAR
STARTCHAR 205
ENCODING 205
SWIDTH 648 0
DWIDTH 9 0
BBX 8 32 1 0
BITMAP
04
0E
1F
3C
F0
40
00
00
78
78
78
78
78
78
78
78
78
78
78
78
78
78
78
78
78
78
78
78
78
78
78
78
ENDCHAR
STARTCHAR 206
ENCODING 206
SWIDTH 648 0
DWIDTH 9 0
BBX 9 31 0 0
BITMAP
0800
3E00
7F00
F780
C180
0000
0000
3C00
3C00
3C00
3C00
3C00
3C00
3C00
3C00
3C00
3C00
3C00
3C00
3C00
3C00
3C00
3C00
3C00
3C00
3C00
3C00
3C00
3C00
3C00
3C00
ENDCHAR
STARTCHAR 207
ENCODING 207
SWIDTH 648 0
DWIDTH 9 0
BBX 9 30 0 0
BITMAP
6300
F780
F780
6300
0000
0000
3C00
3C00
3C00
3C00
3C00
3C00
3C00
3C00
3C00
3C00
3C00
3C00
3C00
3C00
3C00
3C00
3C00
3C00
3C00
3C00
3C00
3C00
3C00
3C00
ENDCHAR
STARTCHAR 208
ENCODING 208
SWIDTH 1440 0
DWIDTH 20 0
BBX 18 24 0 0
BITMAP
3FE000
3FFC00
3FFE00
3C3F00
3C0F00
3C0780
3C0780
3C07C0
3C03C0
3C03C0
FFE3C0
FFE3C0
FFE3C0
3C03C0
3C03C0
3C03C0
3C0780
3C0780
3C0780
3C0F00
3C3F00
3FFE00
3FF800
3FE000
ENDCHAR
STARTCHAR 209
ENCODING 209
SWIDTH 1440 0
DWIDTH 20 0
BBX 15 30 2 0
BITMAP
0E10
1F98
33F0
10E0
0000
0000
F80E
FC0E
FC0E
FE0E
FE0E
FE0E
EF0E
EF0E
EF8E
E78E
E78E
E3CE
E3CE
E3CE
E1EE
E1EE
E0FE
E0FE
E0FE
E07E
E07E
E03E
E03E
E03E
ENDCHAR
STARTCHAR 210
ENCODING 210
SWIDTH 1440 0
DWIDTH 20 0
BBX 17 32 1 0
BITMAP
020000
070000
0F8000
03C000
00F000
002000
000000
000000
07F000
0FF800
1FFC00
3E3E00
780F00
780F00
780F00
F00780
F00780
F00780
F00780
F00780
F00780
F00780
F00780
F00780
F00780
780F00
780F00
780F00
3E3E00
1FFC00
0FF800
03F000
ENDCHAR
STARTCHAR 211
ENCODING 211
SWIDTH 1440 0
DWIDTH 20 0
BBX 17 32 1 0
BITMAP
001000
003800
007C00
00F000
03C000
010000
000000
000000
07F000
0FF800
1FFC00
3E3E00
780F00
780F00
780F00
F00780
F00780
F00780
F00780
F00780
F00780
F00780
F00780
F00780
F00780
780F00
780F00
780F00
3E3E00
1FFC00
0FF800
03F000
ENDCHAR
STARTCHAR 212
ENCODING 212
SWIDTH 1440 0
DWIDTH 20 0
BBX 17 31 1 0
BITMAP
008000
03E000
07F000
0F7800
3C1E00
000000
000000
07F000
0FF800
1FFC00
3E3E00
780F00
780F00
780F00
F00780
F00780
F00780
F00780
F00780
F00780
F00780
F00780
F00780
F00780
780F00
780F00
780F00
3E3E00
1FFC00
0FF800
03F000
ENDCHAR
STARTCHAR 213
ENCODING 213
SWIDTH 1440 0
DWIDTH 20 0
BBX 17 30 1 0
BITMAP
070800
0FCC00
19F800
087000
000000
000000
07F000
0FF800
1FFC00
3E3E00
780F00
780F00
780F00
F00780
F00780
F00780
F00780
F00780
F00780
F00780
F00780
F00780
F00780
780F00
780F00
780F00
3E3E00
1FFC00
0FF800
03F000
ENDCHAR
STARTCHAR 214
ENCODING 214
SWIDTH 1440 0
DWIDTH 20 0
BBX 17 30 1 0
BITMAP
063000
0F7800
0F7800
063000
000000
000000
07F000
0FF800
1FFC00
3E3E00
780F00
780F00
780F00
F00780
F00780
F00780
F00780
F00780
F00780
F00780
F00780
F00780
F00780
780F00
780F00
780F00
3E3E00
1FFC00
0FF800
03F000
ENDCHAR
STARTCHAR 215
ENCODING 215
SWIDTH 1296 0
DWIDTH 18 0
BBX 13 13 3 6
BITMAP
2020
7070
F8F8
7DF0
3FE0
1FC0
0F80
1FC0
3FE0
7DF0
F8F8
7070
2020
ENDCHAR
STARTCHAR 216
ENCODING 216
SWIDTH 1440 0
DWIDTH 20 0
BBX 17 26 1 -1
BITMAP
000300
07F700
0FFE00
1FFE00
3E1E00
781F00
783F00
783F00
F03780
F06780
F06780
F0C780
F0C780
F1C780
F18780
F38780
F30780
F70780
7E0F00
7E0F00
7C0F00
3C3E00
3FFC00
3FF800
73F000
600000
ENDCHAR
STARTCHAR 217
ENCODING 217
SWIDTH 1440 0
DWIDTH 20 0
BBX 15 32 2 0
BITMAP
0400
0E00
1F00
0780
01E0
0040
0000
0000
F01E
F01E
F01E
F01E
F01E
F01E
F01E
F01E
F01E
F01E
F01E
F01E
F01E
F01E
F01E
F01E
F01E
F01E
F01E
F83E
7C3C
7FFC
3FF8
0FE0
ENDCHAR
STARTCHAR 218
ENCODING 218
SWIDTH 1440 0
DWIDTH 20 0
BBX 15 32 2 0
BITMAP
0040
00E0
01F0
03C0
0F00
0400
0000
0000
F01E
F01E
F01E
F01E
F01E
F01E
F01E
F01E
F01E
F01E
F01E
F01E
F01E
F01E
F01E
F01E
F01E
F01E
F01E
F83E
7C3C
7FFC
3FF8
0FE0
ENDCHAR
STARTCHAR 219
ENCODING 219
SWIDTH 1440 0
DWIDTH 20 0
BBX 15 31 2 0
BITMAP
0100
07C0
0FE0
1EF0
783C
0000
0000
F01E
F01E
F01E
F01E
F01E
F01E
F01E
F01E
F01E
F01E
F01E
F01E
F01E
F01E
F01E
F01E
F01E
F01E
F01E
F83E
7C3C
7FFC
3FF8
0FE0
ENDCHAR
STARTCHAR 220
ENCODING 220
SWIDTH 1440 0
DWIDTH 20 0
BBX 15 30 2 0
BITMAP
0C60
1EF0
1EF0
0C60
0000
0000
F01E
F01E
F01E
F01E
F01E
F01E
F01E
F01E
F01E
F01E
F01E
F01E
F01E
F01E
F01E
F01E
F01E
F01E
F01E
F83E
7C3C
7FFC
3FF8
0FE0
ENDCHAR
STARTCHAR 221
ENCODING 221
SWIDTH 1080 0
DWIDTH 15 0
BBX 15 32 0 0
BITMAP
0040
00E0
01F0
03C0
0F00
0400
0000
0000
E01E
E01E
F03E
F03C
F87C
7878
7CF8
3CF0
3EF0
1FE0
1FE0
0FC0
0FC0
0780
0780
0780
0780
0780
0780
0780
0780
0780
0780
0780
ENDCHAR
STARTCHAR 222
ENCODING 222
SWIDTH 1296 0
DWIDTH 18 0
BBX 15 24 2 0
BITMAP
F000
F000
F000
F000
FFE0
FFF8
FFFC
F07C
F03E
F01E
F01E
F01E
F01E
F03E
F07C
FFFC
FFF8
FFE0
F000
F000
F000
F000
F000
F000
ENDCHAR
STARTCHAR 223
ENCODING 223
SWIDTH 1296 0
DWIDTH 18 0
BBX 17 26 0 -2
BITMAP
03F000
07FC00
0FFC00
1E3E00
1E1E00
3C1E00
3C1E00
3C3C00
3C7C00
FCF000
FCE000
FCF800
3C7C00
3C7E00
3C1F00
3C0F80
3C0780
3C0780
3C0780
3C0780
3C0F80
3C7F00
3CFE00
3C7C00
3C0000
3C0000
ENDCHAR
STARTCHAR 224
ENCODING 224
SWIDTH 1224 0
DWIDTH 17 0
BBX 14 26 1 0
BITMAP
0800
1C00
3E00
0F00
03C0
0080
0000
0000
07E0
1FF8
3FF8
7C7C
783C
003C
003C
0FFC
3FFC
7C3C
783C
F03C
F03C
F07C
F8FC
7FFC
7FBC
1F3C
ENDCHAR
STARTCHAR 225
ENCODING 225
SWIDTH 1224 0
DWIDTH 17 0
BBX 14 26 1 0
BITMAP
0010
0038
007C
00F0
03C0
0100
0000
0000
07E0
1FF8
3FF8
7C7C
783C
003C
003C
0FFC
3FFC
7C3C
783C
F03C
F03C
F07C
F8FC
7FFC
7FBC
1F3C
ENDCHAR
STARTCHAR 226
ENCODING 226
SWIDTH 1224 0
DWIDTH 17 0
BBX 14 25 1 0
BITMAP
0100
07C0
0FE0
1EF0
783C
0000
0000
07E0
1FF8
3FF8
7C7C
783C
003C
003C
0FFC
3FFC
7C3C
783C
F03C
F03C
F07C
F8FC
7FFC
7FBC
1F3C
ENDCHAR
STARTCHAR 227
ENCODING 227
SWIDTH 1224 0
DWIDTH 17 0
BBX 14 24 1 0
BITMAP
0E10
1F98
33F0
10E0
0000
0000
07E0
1FF8
3FF8
7C7C
783C
003C
003C
0FFC
3FFC
7C3C
783C
F03C
F03C
F07C
F8FC
7FFC
7FBC
1F3C
ENDCHAR
STARTCHAR 228
ENCODING 228
SWIDTH 1224 0
DWIDTH 17 0
BBX 14 24 1 0
BITMAP
0C60
1EF0
1EF0
0C60
0000
0000
07E0
1FF8
3FF8
7C7C
783C
003C
003C
0FFC
3FFC
7C3C
783C
F03C
F03C
F07C
F8FC
7FFC
7FBC
1F3C
ENDCHAR
STARTCHAR 229
ENCODING 229
SWIDTH 1224 0
DWIDTH 17 0
BBX 14 27 1 0
BITMAP
0380
07C0
0C60
0C60
0C60
07C0
0380
0000
0000
07E0
1FF8
3FF8
7C7C
783C
003C
003C
0FFC
3FFC
7C3C
783C
F03C
F03C
F07C
F8FC
7FFC
7FBC
1F3C
ENDCHAR
STARTCHAR 230
ENCODING 230
SWIDTH 1800 0
DWIDTH 25 0
BBX 23 18 1 0
BITMAP
07E1E0
1FF7F0
3FFFF8
7C7E3C
783E1C
003C1E
003C1E
0FFFFE
3FFFFE
7C3FFE
783C00
F03C00
F03C1E
F07C1E
F8FE3C
7FEFFC
7FC7F8
1F03F0
ENDCHAR
STARTCHAR 231
ENCODING 231
SWIDTH 1080 0
DWIDTH 15 0
BBX 14 25 1 -7
BITMAP
0FC0
1FF0
3FF8
7C78
787C
F03C
F03C
F000
F000
F000
F000
F03C
F03C
787C
7C78
3FF8
1FF0
0FC0
0200
0600
07C0
00E0
08E0
0FE0
07C0
ENDCHAR
STARTCHAR 232
ENCODING 232
SWIDTH 1152 0
DWIDTH 16 0
BBX 14 26 1 0
BITMAP
0800
1C00
3E00
0F00
03C0
0080
0000
0000
0FC0
1FE0
3FF0
7878
7838
F03C
F03C
FFFC
FFFC
FFFC
F000
F000
F03C
707C
7878
3FF8
1FF0
0FC0
ENDCHAR
STARTCHAR 233
ENCODING 233
SWIDTH 1152 0
DWIDTH 16 0
BBX 14 26 1 0
BITMAP
0020
0070
00F8
01E0
0780
0200
0000
0000
0FC0
1FE0
3FF0
7878
7838
F03C
F03C
FFFC
FFFC
FFFC
F000
F000
F03C
707C
7878
3FF8
1FF0
0FC0
ENDCHAR
STARTCHAR 234
ENCODING 234
SWIDTH 1152 0
DWIDTH 16 0
BBX 14 25 1 0
BITMAP
0100
07C0
0FE0
1EF0
783C
0000
0000
0FC0
1FE0
3FF0
7878
7838
F03C
F03C
FFFC
FFFC
FFFC
F000
F000
F03C
707C
7878
3FF8
1FF0
0FC0
ENDCHAR
STARTCHAR 235
ENCODING 235
SWIDTH 1152 0
DWIDTH 16 0
BBX 14 24 1 0
BITMAP
0C60
1EF0
1EF0
0C60
0000
0000
0FC0
1FE0
3FF0
7878
7838
F03C
F03C
FFFC
FFFC
FFFC
F000
F000
F03C
707C
7878
3FF8
1FF0
0FC0
ENDCHAR
STARTCHAR 236
ENCODING 236
SWIDTH 576 0
DWIDTH 8 0
BBX 7 26 0 0
BITMAP
40
E0
F0
78
1E
04
00
00
3C
3C
3C
3C
3C
3C
3C
3C
3C
3C
3C
3C
3C
3C
3C
3C
3C
3C
ENDCHAR
STARTCHAR 237
ENCODING 237
SWIDTH 576 0
DWIDTH 8 0
BBX 7 26 1 0
BITMAP
04
0E
1E
3C
F0
40
00
00
78
78
78
78
78
78
78
78
78
78
78
78
78
78
78
78
78
78
ENDCHAR
STARTCHAR 238
ENCODING 238
SWIDTH 576 0
DWIDTH 8 0
BBX 8 25 0 0
BITMAP
08
3E
7F
F7
C1
00
00
3C
3C
3C
3C
3C
3C
3C
3C
3C
3C
3C
3C
3C
3C
3C
3C
3C
3C
ENDCHAR
STARTCHAR 239
ENCODING 239
SWIDTH 576 0
DWIDTH 8 0
BBX 8 24 0 0
BITMAP
63
F7
F7
63
00
00
3C
3C
3C
3C
3C
3C
3C
3C
3C
3C
3C
3C
3C
3C
3C
3C
3C
3C
ENDCHAR
STARTCHAR 240
ENCODING 240
SWIDTH 1152 0
DWIDTH 16 0
BBX 14 26 1 0
BITMAP
0100
0720
07F0
03C0
07C0
0FE0
05E0
00F0
0FF0
3FF8
3FF8
7CF8
7878
F03C
F03C
F03C
F03C
F03C
F03C
F03C
F03C
7878
7878
3FF0
1FE0
0FC0
ENDCHAR
STARTCHAR 241
ENCODING 241
SWIDTH 1224 0
DWIDTH 17 0
BBX 13 24 2 0
BITMAP
1C20
3F30
67E0
21C0
0000
0000
F3E0
F7F0
FFF8
F8F8
F878
F078
F078
F078
F078
F078
F078
F078
F078
F078
F078
F078
F078
F078
ENDCHAR
STARTCHAR 242
ENCODING 242
SWIDTH 1224 0
DWIDTH 17 0
BBX 15 26 1 0
BITMAP
0400
0E00
1F00
0780
01E0
0040
0000
0000
0FE0
1FF0
3FF8
7C7C
783C
F01E
F01E
F01E
F01E
F01E
F01E
F01E
F01E
783C
7C7C
3FF8
1FF0
0FE0
ENDCHAR
STARTCHAR 243
ENCODING 243
SWIDTH 1224 0
DWIDTH 17 0
BBX 15 26 1 0
BITMAP
0020
0070
00F8
01E0
0780
0200
0000
0000
0FE0
1FF0
3FF8
7C7C
783C
F01E
F01E
F01E
F01E
F01E
F01E
F01E
F01E
783C
7C7C
3FF8
1FF0
0FE0
ENDCHAR
STARTCHAR 244
ENCODING 244
SWIDTH 1224 0
DWIDTH 17 0
BBX 15 25 1 0
BITMAP
0100
07C0
0FE0
1EF0
783C
0000
0000
0FE0
1FF0
3FF8
7C7C
783C
F01E
F01E
F01E
F01E
F01E
F01E
F01E
F01E
783C
7C7C
3FF8
1FF0
0FE0
ENDCHAR
STARTCHAR 245
ENCODING 245
SWIDTH 1224 0
DWIDTH 17 0
BBX 15 24 1 0
BITMAP
0E10
1F98
33F0
10E0
0000
0000
0FE0
1FF0
3FF8
7C7C
783C
F01E
F01E
F01E
F01E
F01E
F01E
F01E
F01E
783C
7C7C
3FF8
1FF0
0FE0
ENDCHAR
STARTCHAR 246
ENCODING 246
SWIDTH 1224 0
DWIDTH 17 0
BBX 15 24 1 0
BITMAP
0C60
1EF0
1EF0
0C60
0000
0000
0FE0
1FF0
3FF8
7C7C
783C
F01E
F01E
F01E
F01E
F01E
F01E
F01E
F01E
783C
7C7C
3FF8
1FF0
0FE0
ENDCHAR
STARTCHAR 247
ENCODING 247
SWIDTH 1296 0
DWIDTH 18 0
BBX 16 15 1 4
BITMAP
03C0
03C0
03C0
03C0
0000
0000
FFFF
FFFF
FFFF
0000
0000
03C0
03C0
03C0
03C0
ENDCHAR
STARTCHAR 248
ENCODING 248
SWIDTH 1224 0
DWIDTH 17 0
BBX 15 20 1 -1
BITMAP
000E
07EC
1FFC
3FFC
7C7C
787E
F0DE
F0DE
F19E
F19E
F31E
F31E
F61E
F61E
7C3C
7C7C
3FF8
3FF0
37E0
7000
ENDCHAR
STARTCHAR 249
ENCODING 249
SWIDTH 1224 0
DWIDTH 17 0
BBX 13 26 2 0
BITMAP
0800
1C00
3E00
0F00
03C0
0080
0000
0000
F078
F078
F078
F078
F078
F078
F078
F078
F078
F078
F078
F078
F078
F0F8
F8F8
FFF8
7F78
3E78
ENDCHAR
STARTCHAR 250
ENCODING 250
SWIDTH 1224 0
DWIDTH 17 0
BBX 13 26 2 0
BITMAP
0040
00E0
01F0
03C0
0F00
0400
0000
0000
F078
F078
F078
F078
F078
F078
F078
F078
F078
F078
F078
F078
F078
F0F8
F8F8
FFF8
7F78
3E78
ENDCHAR
STARTCHAR 251
ENCODING 251
SWIDTH 1224 0
DWIDTH 17 0
BBX 13 25 2 0
BITMAP
0200
0F80
1FC0
3DE0
F078
0000
0000
F078
F078
F078
F078
F078
F078
F078
F078
F078
F078
F078
F078
F078
F0F8
F8F8
FFF8
7F78
3E78
ENDCHAR
STARTCHAR 252
ENCODING 252
SWIDTH 1224 0
DWIDTH 17 0
BBX 13 24 2 0
BITMAP
18C0
3DE0
3DE0
18C0
0000
0000
F078
F078
F078
F078
F078
F078
F078
F078
F078
F078
F078
F078
F078
F0F8
F8F8
FFF8
7F78
3E78
ENDCHAR
STARTCHAR 253
ENCODING 253
SWIDTH 936 0
DWIDTH 13 0
BBX 13 32 0 -6
BITMAP
0040
00E0
01F0
03C0
0F00
0400
0000
0000
F038
F878
7870
7870
7870
38E0
3CE0
3CE0
3CC0
1DC0
1FC0
1FC0
0F80
0F80
0F80
0F00
0700
0700
0600
0E00
1E00
FC00
FC00
F000
ENDCHAR
STARTCHAR 254
ENCODING 254
SWIDTH 1224 0
DWIDTH 17 0
BBX 14 30 2 -6
BITMAP
F000
F000
F000
F000
F000
F000
F3C0
F7F0
FFF8
FC78
F878
F03C
F03C
F03C
F03C
F03C
F03C
F03C
F03C
F878
F8F8
FFF0
F7F0
F3C0
F000
F000
F000
F000
F000
F000
ENDCHAR
STARTCHAR 255
ENCODING 255
SWIDTH 936 0
DWIDTH 13 0
BBX 13 30 0 -6
BITMAP
18C0
3DE0
3DE0
18C0
0000
0000
F038
F878
7870
7870
7870
38E0
3CE0
3CE0
3CC0
1DC0
1FC0
1FC0
0F80
0F80
0F80
0F00
0700
0700
0600
0E00
1E00
FC00
FC00
F000
ENDCHAR
ENDFONT
